<?xml version="1.0" encoding="utf-8"?>
<!-- Svg Vector Icons : http://www.onlinewebfonts.com/icon -->
<!DOCTYPE svg PUBLIC "-//W3C//DTD SVG 1.1//EN" "http://www.w3.org/Graphics/SVG/1.1/DTD/svg11.dtd">
<svg version="1.1" xmlns="http://www.w3.org/2000/svg" xmlns:xlink="http://www.w3.org/1999/xlink" x="0px" y="0px" viewBox="0 0 256 256" enable-background="new 0 0 256 256" xml:space="preserve">
<metadata> Svg Vector Icons : http://www.onlinewebfonts.com/icon </metadata>
<g><g><g><path fill="#000000" d="M118.2,19.3c-26,3-48.7,13.7-65.8,31c-15.2,15.4-23.6,33.9-24.7,54.5l-0.3,6.5l-3.7,3c-6.4,5.2-11.5,12.5-13.1,18.6c-2.1,8.3,1.6,14.1,10.4,16.3c2.5,0.7,2.5,0.7,3.2,3.8c0.8,3.7,2.6,7.6,4.8,10.1l1.5,1.7l-2.3,2.6c-5.6,6.1-6.5,14.3-2.3,21c1.2,1.8,1.7,3.5,2,6.5c1.6,16.1,11.8,30.6,26.7,37.8c10,4.8,4.2,4.5,75.7,4.5c71.4,0,65.6,0.3,75.6-4.5c14.9-7.2,25.3-21.9,26.8-37.9c0.2-2.8,0.7-4.5,1.7-6c3.8-5.7,3.8-13-0.2-19l-1.5-2.3l1.8-7.6l1.9-7.7l3.1-2c7-4.5,8.3-10.8,4.1-19.6c-1.6-3.3-7.4-10.9-9.4-12.2c-1.2-0.8-1.2-1.3-1.6-10.7c-0.2-6.5-0.7-11.5-1.4-14.9c-7.9-36.5-40-65-81.5-72.2C141.8,19.1,125.5,18.5,118.2,19.3z M141.4,28.2c43.2,4.4,76.1,32.3,81.6,69.3c0.5,3.2,0.9,7.9,0.9,10.4v4.5h-93.7H36.5v-4.5c0-13.7,4.7-28.8,12.5-40.6C67.3,39.9,103.9,24.4,141.4,28.2z M227.5,124.1c6,4.6,9.8,10.1,9.8,14.1c0,2.7-2.3,5.5-4.4,5.5c-0.8,0-2,0.4-2.6,0.8c-1.5,1.1-6,1.1-11-0.3c-6.5-1.6-18.1-7.8-22.5-11.8c-2.8-2.6-4-2.7-8.4-0.8c-10.1,4.2-28,4-36.9-0.4c-4.8-2.4-7.2-1.8-8.9,2.1c-1.5,3.5-4.1,6.1-7.2,7.5c-3.7,1.6-10.1,2.5-15.5,2.2c-5.7-0.3-10.7-2.5-14.3-6.2c-3.7-3.8-4.8-4.1-9-2.1c-6.4,3-10.3,3.7-20.1,3.7c-7.6,0-9.6-0.2-13.4-1.3c-2.5-0.7-5.5-1.9-6.8-2.7c-1.3-0.7-2.9-1.3-3.6-1.3c-0.7,0-4.2,1.5-8,3.3c-7.6,3.7-12.4,5.1-17.6,5.2c-7.5,0-10.2-3.7-7.3-10.2c0.6-1.3,3-4.2,5.2-6.4l4-4l97.7,0.3l97.7,0.3L227.5,124.1z M155.7,141.9l6.2,1.6l-11.9,17c-6.6,9.4-12.2,17-12.6,16.8c-1.3-0.3-47.9-30.5-47.5-30.8c0.2-0.2,2.5-0.9,5-1.6l4.6-1.3l2.1,1.7c6.2,4.9,13.7,7.1,22.5,6.6c10.4-0.6,17.4-3.2,22.1-8.4c1.5-1.6,2.8-3,3-3.1C149.3,140.4,152.2,141,155.7,141.9z M194.1,141.9c3.5,2.6,13.7,7.8,18.1,9.3c2.2,0.8,6.4,1.7,9.1,2c2.8,0.4,5.1,0.7,5.2,0.8c0.1,0.1-0.2,1.8-0.7,3.7l-0.9,3.6l-7.6,0.6c-11,0.9-56.2,3.6-58.1,3.3c-1.6-0.2-1.6-0.2,5.9-10.9c6.6-9.5,7.7-10.7,9-10.7c2.3,0,11.7-1.7,13.9-2.5C191.1,140,191.7,140.2,194.1,141.9z M68.9,147.1l5.9,0.7l13.1,8.4c12.5,8.1,13,8.4,11,8.6c-1.1,0.1-14.3-0.5-29.2-1.3c-29.2-1.6-30.1-1.7-33.1-4.8c-1.4-1.5-3.1-4.9-3.6-7.5l-0.4-1.7l3.6-0.7c3.6-0.7,10.2-3.1,14.1-5.1c2-0.9,2-0.9,7.4,0.8C60.8,145.7,65.4,146.7,68.9,147.1z M80,172.9l37,2l10.3,6.7l10.4,6.6l-50.1-0.1L37.4,188l-1.8-1.3c-3.5-2.5-4.6-9.4-2-12.8c1.7-2.3,4.6-3.6,7.1-3.2C41.9,170.8,59.6,171.9,80,172.9z M225.1,172.2c4.9,3.5,4,12.5-1.3,15c-2.3,1.1-4,1.1-42.8,1.1c-22.3,0-40.1-0.2-39.7-0.3c0.4-0.2,2.7-3.1,5.2-6.6c4.3-6.1,4.6-6.4,6.5-6.4c1.1,0,15.5-0.8,31.9-1.8C222.5,170.7,223,170.7,225.1,172.2z M223.3,197.5c0,1.5-1.7,6.8-3.2,9.9c-3.6,7.7-9.8,13.7-17.7,17.5c-7.9,3.7-6.1,3.6-72.2,3.6c-66.1,0-64.3,0.1-72.2-3.6c-8-3.8-14-9.6-17.7-17.5c-1.5-3.1-3.2-8.5-3.2-9.9c0-0.4,31.4-0.6,93.1-0.6C192,196.9,223.3,197.1,223.3,197.5z"/><path fill="#000000" d="M113.8,42.4c-2.8,2.7-0.8,7.5,3.1,7.5c2.3,0,4.5-2.2,4.5-4.5c0-2.3-2.2-4.5-4.5-4.5C115.8,41,114.6,41.5,113.8,42.4z"/><path fill="#000000" d="M131.6,42.4c-0.9,0.8-1.4,2-1.4,3.1s0.5,2.2,1.4,3.1c0.8,0.9,2,1.4,3.1,1.4s2.2-0.5,3.1-1.4c0.9-0.8,1.4-2,1.4-3.1s-0.5-2.2-1.4-3.1c-0.8-0.9-2-1.4-3.1-1.4C133.6,41,132.4,41.5,131.6,42.4z"/><path fill="#000000" d="M95.9,46.9c-2.8,2.7-0.8,7.5,3.1,7.5c2.3,0,4.5-2.2,4.5-4.5c0-2.3-2.2-4.5-4.5-4.5C97.9,45.5,96.7,46,95.9,46.9z"/><path fill="#000000" d="M149.5,46.9c-0.9,0.8-1.4,2-1.4,3.1s0.5,2.2,1.4,3.1c0.8,0.9,2,1.4,3.1,1.4s2.2-0.5,3.1-1.4c0.9-0.8,1.4-2,1.4-3.1s-0.5-2.2-1.4-3.1c-0.8-0.9-2-1.4-3.1-1.4C151.5,45.5,150.3,46,149.5,46.9z"/><path fill="#000000" d="M78.1,51.4c-2.8,2.7-0.8,7.5,3.1,7.5c2.3,0,4.5-2.2,4.5-4.5S83.4,50,81.1,50C80.1,50,78.9,50.5,78.1,51.4z"/><path fill="#000000" d="M167.3,51.4c-0.9,0.8-1.4,2-1.4,3.1s0.5,2.2,1.4,3.1c0.8,0.9,2,1.4,3.1,1.4s2.2-0.5,3.1-1.4c0.9-0.8,1.4-2,1.4-3.1s-0.5-2.2-1.4-3.1c-0.8-0.9-2-1.4-3.1-1.4S168.1,50.5,167.3,51.4z"/><path fill="#000000" d="M185.1,55.8c-0.9,0.8-1.4,2-1.4,3.1s0.5,2.2,1.4,3.1c0.8,0.9,2,1.4,3.1,1.4s2.2-0.5,3.1-1.4c0.9-0.8,1.4-2,1.4-3.1s-0.5-2.2-1.4-3.1c-0.8-0.9-2-1.4-3.1-1.4S186,54.9,185.1,55.8z"/><path fill="#000000" d="M109.3,60.3c-2.8,2.7-0.8,7.5,3.1,7.5c2.3,0,4.5-2.2,4.5-4.5c0-2.3-2.2-4.5-4.5-4.5C111.3,58.9,110.1,59.4,109.3,60.3z"/><path fill="#000000" d="M131.6,60.3c-0.9,0.8-1.4,2-1.4,3.1s0.5,2.2,1.4,3.1c0.8,0.9,2,1.4,3.1,1.4s2.2-0.5,3.1-1.4c0.9-0.8,1.4-2,1.4-3.1s-0.5-2.2-1.4-3.1c-0.8-0.9-2-1.4-3.1-1.4C133.6,58.9,132.4,59.4,131.6,60.3z"/><path fill="#000000" d="M60.2,64.7c-2.8,2.7-0.8,7.5,3.1,7.5c2.3,0,4.5-2.2,4.5-4.5c0-2.3-2.2-4.5-4.5-4.5C62.2,63.4,61.1,63.9,60.2,64.7z"/><path fill="#000000" d="M91.4,64.7c-2.8,2.7-0.8,7.5,3.1,7.5c2.3,0,4.5-2.2,4.5-4.5c0-2.3-2.2-4.5-4.5-4.5C93.5,63.4,92.3,63.9,91.4,64.7z"/><path fill="#000000" d="M149.5,64.7c-0.9,0.8-1.4,2-1.4,3.1c0,1.1,0.5,2.2,1.4,3.1c0.8,0.9,2,1.4,3.1,1.4s2.2-0.5,3.1-1.4c0.9-0.8,1.4-2,1.4-3.1c0-1.1-0.5-2.2-1.4-3.1c-0.8-0.9-2-1.4-3.1-1.4C151.5,63.4,150.3,63.9,149.5,64.7z"/><path fill="#000000" d="M167.3,69.2c-0.9,0.8-1.4,2-1.4,3.1s0.5,2.2,1.4,3.1c0.8,0.9,2,1.4,3.1,1.4s2.2-0.5,3.1-1.4c0.9-0.8,1.4-2,1.4-3.1s-0.5-2.2-1.4-3.1c-0.8-0.9-2-1.4-3.1-1.4S168.1,68.3,167.3,69.2z"/><path fill="#000000" d="M78.1,73.7c-2.8,2.7-0.8,7.5,3.1,7.5c2.3,0,4.5-2.2,4.5-4.5c0-2.3-2.2-4.5-4.5-4.5C80.1,72.3,78.9,72.8,78.1,73.7z"/><path fill="#000000" d="M203,73.7c-0.9,0.8-1.4,2-1.4,3.1s0.5,2.2,1.4,3.1c0.8,0.9,2,1.4,3.1,1.4s2.2-0.5,3.1-1.4c0.9-0.8,1.4-2,1.4-3.1s-0.5-2.2-1.4-3.1c-0.8-0.9-2-1.4-3.1-1.4S203.8,72.8,203,73.7z"/><path fill="#000000" d="M104.8,78.1c-2.8,2.7-0.8,7.5,3.1,7.5c2.3,0,4.5-2.2,4.5-4.5c0-2.3-2.2-4.5-4.5-4.5C106.8,76.7,105.7,77.2,104.8,78.1z"/><path fill="#000000" d="M122.7,78.1c-2.8,2.7-0.8,7.5,3.1,7.5c1.1,0,2.2-0.5,3.1-1.4c0.9-0.8,1.4-2,1.4-3.1s-0.5-2.2-1.4-3.1c-0.8-0.9-2-1.4-3.1-1.4S123.5,77.2,122.7,78.1z"/><path fill="#000000" d="M140.5,78.1c-0.9,0.8-1.4,2-1.4,3.1s0.5,2.2,1.4,3.1c0.8,0.9,2,1.4,3.1,1.4s2.2-0.5,3.1-1.4c0.9-0.8,1.4-2,1.4-3.1s-0.5-2.2-1.4-3.1c-0.8-0.9-2-1.4-3.1-1.4S141.4,77.2,140.5,78.1z"/><path fill="#000000" d="M185.1,78.1c-0.9,0.8-1.4,2-1.4,3.1s0.5,2.2,1.4,3.1c0.8,0.9,2,1.4,3.1,1.4s2.2-0.5,3.1-1.4c0.9-0.8,1.4-2,1.4-3.1s-0.5-2.2-1.4-3.1c-0.8-0.9-2-1.4-3.1-1.4S186,77.2,185.1,78.1z"/><path fill="#000000" d="M55.8,82.6c-2.8,2.7-0.8,7.5,3.1,7.5c2.3,0,4.5-2.2,4.5-4.5c0-2.3-2.2-4.5-4.5-4.5C57.8,81.2,56.6,81.7,55.8,82.6z"/><path fill="#000000" d="M91.4,87.1c-2.8,2.7-0.8,7.5,3.1,7.5c2.3,0,4.5-2.2,4.5-4.5s-2.2-4.5-4.5-4.5C93.5,85.7,92.3,86.2,91.4,87.1z"/><path fill="#000000" d="M162.8,87.1c-0.9,0.8-1.4,2-1.4,3.1s0.5,2.2,1.4,3.1c0.8,0.9,2,1.4,3.1,1.4s2.2-0.5,3.1-1.4c0.9-0.8,1.4-2,1.4-3.1s-0.5-2.2-1.4-3.1c-0.8-0.9-2-1.4-3.1-1.4S163.7,86.2,162.8,87.1z"/></g></g></g>
</svg>